# xmcd
#
# Track frame offsets:
#	150
#	14706
#	36935
#	55947
#	77073
#	102436
#	120960
#	136557
#	158094
#	176929
#	223636
#	248061
#	268223
#	280256
#	293919
#	313452
#
# Disc length: 4453
#
# Revision: 3
# Processed by: cddbd v1.5.1PL0 Copyright (c) Steve Scherf et al.
# Submitted via: tcd 2.0b
# Normalized: r2:TDELIM( - )
#
DISCID=ef116310
DTITLE=skyblue - Pretty good mix
DYEAR=1900
DGENRE=
TTITLE0=Alex Fox - Guitar on fire
TTITLE1=Abba - The winner takes it all
TTITLE2=ATB - Underwater world
TTITLE3=Dido - Worthless
TTITLE4=Dire Straits - Sultans of swing
TTITLE5=Robert Miles - Children
TTITLE6=Yakida - Show me love
TTITLE7=Santana - Put your lights on
TTITLE8=Paul Oakenfold - Swordfish/Password
TTITLE9=Loreena McKennitt - The highwayman
TTITLE10=Mozart - Pachabel in D Cannon
TTITLE11=Unknown - need
TTITLE12=Dream Theater - Long Island Express way
TTITLE13=Lenny Kravitz - Flyaway
TTITLE14=Robbie Williams - Supreme
TTITLE15=Spooks - Things I've seen
EXTD=http://enver.casdb.com/
EXTT0=
EXTT1=
EXTT2=
EXTT3=
EXTT4=
EXTT5=
EXTT6=
EXTT7=
EXTT8=
EXTT9=
EXTT10=
EXTT11=
EXTT12=
EXTT13=
EXTT14=
EXTT15=
PLAYORDER=
